<svg xmlns="http://www.w3.org/2000/svg" width="28" height="28" viewBox="0 0 28 28">
  <defs>
    <style>
      .cls-1 {
      fill: #7f993a;
      fill-rule: evenodd;
      }
    </style>
  </defs>
  <path id="Adaptation.svg" class="cls-1" d="M849.529,318.312a2.013,2.013,0,1,0-1.7,3.2A5.125,5.125,0,0,0,849.529,318.312Zm-11.265,5.669a5.155,5.155,0,0,1,.139-3.626,5.048,5.048,0,0,1,2.753,2.323,5.155,5.155,0,0,1-.138,3.625A5.048,5.048,0,0,1,838.264,323.981Zm-2.776,3.1A5.012,5.012,0,0,1,833,324.537a4.921,4.921,0,0,1,3.511-.442A5.011,5.011,0,0,1,839,326.642,4.921,4.921,0,0,1,835.488,327.083ZM836,329.847a4.42,4.42,0,0,1,2.378-2.064,4.362,4.362,0,0,1,3.067.648,4.424,4.424,0,0,1-2.379,2.064A4.36,4.36,0,0,1,836,329.847Zm7.151-8.9a4.554,4.554,0,0,1-.671-3.133,4.42,4.42,0,0,1,2.861,1.374,4.545,4.545,0,0,1,.671,3.132A4.423,4.423,0,0,1,843.151,320.944Zm6.6,4.271a3.76,3.76,0,0,1,2.534-.937,3.87,3.87,0,0,1-.812,2.6,3.765,3.765,0,0,1-2.534.937A3.87,3.87,0,0,1,849.753,325.215Zm-4.5-1.831a3.867,3.867,0,0,1,1.113,2.488,3.752,3.752,0,0,1-2.626-.626,3.857,3.857,0,0,1-1.113-2.487A3.755,3.755,0,0,1,845.25,323.384Zm4.98-3.534a5.424,5.424,0,0,1,3.472-1.758,5.58,5.58,0,0,1-.743,3.857,5.424,5.424,0,0,1-3.472,1.758A5.58,5.58,0,0,1,850.23,319.85Zm3,6.433a5.2,5.2,0,0,1,2.031-3.072,5.079,5.079,0,0,1,3.645-.244,5.207,5.207,0,0,1-2.032,3.072A5.071,5.071,0,0,1,853.23,326.283ZM861,329.034a4.39,4.39,0,0,1-6.957.831A4.39,4.39,0,0,1,861,329.034Zm-5.226,5.282a4.94,4.94,0,0,1-3.489-.678,5.083,5.083,0,0,1-1.6-3.211,4.94,4.94,0,0,1,3.489.678A5.083,5.083,0,0,1,855.773,334.316Zm-4.3,5.482a21.46,21.46,0,0,0,3.38,1.579,16.551,16.551,0,0,1-5.644-1.026,0.676,0.676,0,0,0-.015.842,8.749,8.749,0,0,0,1.94,1.6,7.22,7.22,0,0,1-4.325-2.479c-0.634,1.369-4.793,2.691-4.793,2.691A18.733,18.733,0,0,0,844,341.42a4.753,4.753,0,0,0,.836-1.611s-1.772.248-2.174,0.314a27.828,27.828,0,0,0-4.794,2,19.106,19.106,0,0,1,3.894-2.818c0.623-.25,2.052-0.477,2.432-0.988a13,13,0,0,0,1.148-3.748,49.3,49.3,0,0,1,.58-4.945c0.292-.737-5.2-2.42-5.706-2.641s5.379,0.409,6.108,1.069c0.56,0.507,1.5-5.106,1.5-5.106s0,5.95-.007,6.665c0.068-.814,7.649-2.052,7.649-2.052s-6.9,2.186-7.5,3.6a12.4,12.4,0,0,0-.052,3.919c0.05,0.44.1,0.848,0.118,0.977,0.3,2.2.317,0.675,0.99,2.534C849.311,339.38,850.378,339.072,851.476,339.8Z" transform="translate(-833 -315)"/>
</svg>
