<svg xmlns="http://www.w3.org/2000/svg" width="30.281" height="30.34" viewBox="0 0 30.281 30.34">
  <defs>
    <style>
      .cls-1 {
      fill: #464547;
      fill-rule: evenodd;
      }
    </style>
  </defs>
  <path id="ECA.svg" class="cls-1" d="M131.516,1407.93a0.492,0.492,0,0,0,.329.13h13.982a0.458,0.458,0,0,0,.347-0.15,0.469,0.469,0,0,0,.116-0.36,15.2,15.2,0,0,0-24.624-10.2,0.474,0.474,0,0,0-.037.7Zm-1.885-5.31,4.01-5.96a12.719,12.719,0,0,1,1.365.34l-4.389,6.6Zm1.558-6.2c0.119,0,.24,0,0.362.01l-3.263,4.85-1.057-1.06,2.613-3.73C130.291,1396.45,130.742,1396.42,131.189,1396.42Zm-4.024.65-1.272,1.81-0.875-.87a12.724,12.724,0,0,1,1.769-.81C126.912,1397.16,127.038,1397.11,127.165,1397.07Zm11.888,8.57,2.552-3.84c0.176,0.25.344,0.5,0.5,0.77L140,1405.64h-0.944Zm3.2,0,0.8-1.17c0.152,0.39.286,0.78,0.4,1.17h-1.2Zm-6.958,0,4.127-6.21c0.133,0.12.261,0.23,0.384,0.34q0.278,0.255.551,0.54l-3.546,5.33H135.3Zm-2.238,0h-0.405l-0.694-.69,4.814-7.24a12.172,12.172,0,0,1,1.142.63Zm-3.547,3.44-9.466-9.45a0.439,0.439,0,0,0-.355-0.14,0.481,0.481,0,0,0-.337.17,15.239,15.239,0,0,0-3.356,9.52,15.08,15.08,0,0,0,5.886,12,0.483,0.483,0,0,0,.285.09h0.084a0.5,0.5,0,0,0,.313-0.22l7.013-11.39A0.476,0.476,0,0,0,129.514,1409.08Zm-2.806.62-4.96,8.06a12.853,12.853,0,0,1-1.941-2.8,12.577,12.577,0,0,1-1.384-5.78,12.725,12.725,0,0,1,1.587-6.17Zm19.119,0.6H132.075a0.459,0.459,0,0,0-.4.22l-7.206,11.7a0.476,0.476,0,0,0-.05.38,0.467,0.467,0,0,0,.246.29,15.159,15.159,0,0,0,21.622-12.08,0.469,0.469,0,0,0-.116-0.36A0.458,0.458,0,0,0,145.827,1410.3Z" transform="translate(-116 -1394)"/>
</svg>
