<svg xmlns="http://www.w3.org/2000/svg" width="34" height="34" viewBox="0 0 34 34">
  <defs>
    <style>
      .cls-1 {
      fill: #1a9cb0;
      fill-rule: evenodd;
      }
    </style>
  </defs>
  <path id="Feedback.svg" class="cls-1" d="M137.965,807.756c-0.582.81-2.112,1.238-4.424,1.238h-0.228c-2.09-.025-3.486-0.463-4.147-1.3-0.622-.789-0.711-2.1-0.271-4.021a5.023,5.023,0,0,1,.615-1.7,7.365,7.365,0,0,1,1.063.694,4.906,4.906,0,0,0,2.737,1.238,4.447,4.447,0,0,0,2.641-1.209,6.35,6.35,0,0,1,.92-0.631,4.731,4.731,0,0,1,.865,1.749C138.158,805.054,138.64,806.815,137.965,807.756Zm-4.581-12.194a2.814,2.814,0,1,0,2.819,2.814A2.819,2.819,0,0,0,133.384,795.562ZM132.994,792A17.026,17.026,0,0,0,116,807.719l3.083-2.309,3.327,2.492a10.646,10.646,0,0,1,6.788-8.824,4.176,4.176,0,0,1-.071-0.7,4.258,4.258,0,1,1,8.38,1.011,10.646,10.646,0,0,1,6.038,8.3l3.361,2.517L150,807.885A17.022,17.022,0,0,0,132.994,792Zm3.877,27.074a6.35,6.35,0,0,0-.92.631,4.452,4.452,0,0,1-2.641,1.208,4.9,4.9,0,0,1-2.737-1.237c-0.2-.146-0.47-0.342-0.713-0.5-0.133-.041-0.265-0.082-0.4-0.128a5.554,5.554,0,0,0-.57,1.631c-0.43,1.874-.316,3.239.337,4.058a4.384,4.384,0,0,0,3.264,1.241c0.044,0,.088,0,0.133.006,0.149,0.008.305,0.011,0.462,0.013,0.472,0,.938-0.026,1.4-0.066a4.259,4.259,0,0,0,3.054-1.419,4.122,4.122,0,0,0,.191-3.693A4.731,4.731,0,0,0,136.871,819.074Zm-9.379,1.288a7.673,7.673,0,0,1,.646-1.886,10.652,10.652,0,0,1-5.617-7.618l-3.438-2.574-3.068,2.3a17.017,17.017,0,0,0,11.79,14.607A6.74,6.74,0,0,1,127.492,820.362Zm19.414-7.289-3.389-2.537a10.645,10.645,0,0,1-5.4,7.8,7.1,7.1,0,0,1,.982,2.03,5.783,5.783,0,0,1-.126,4.558,17.022,17.022,0,0,0,10.986-14.133Zm-13.522-.479a2.814,2.814,0,1,0,2.819,2.814A2.819,2.819,0,0,0,133.384,812.594Z" transform="translate(-116 -792)"/>
</svg>
