<svg xmlns="http://www.w3.org/2000/svg" width="27.906" height="31" viewBox="0 0 27.906 31">
  <defs>
    <style>
      .cls-1 {
      fill: #a3c644;
      fill-rule: evenodd;
      }
    </style>
  </defs>
  <path id="Grow.svg" class="cls-1" d="M134.2,580.4a16.788,16.788,0,0,0-1.665-7.254c1.519-4.7,4.022-9.074,6.376-11.278-4.426,3.327-6.965,5.891-8.467,8.491a10.148,10.148,0,0,0-4.274-2.354c1.568-4.778,6.049-9.6,16.312-14.007C142.482,554,148.994,570.043,134.2,580.4Zm-12.468-7.208c5.618,4.094,7.128,9.105,7.322,11.806-9.115-2.256-11.527-7.863-13.051-15.846,18.976-3.138,16.239,15.249,16.239,15.249C129.8,577.737,127.769,575.555,121.732,573.194Z" transform="translate(-116 -554)"/>
</svg>
