<svg xmlns="http://www.w3.org/2000/svg" width="33.85" height="51" viewBox="0 0 33.85 51">
  <defs>
    <style>
      .cls-1 {
      fill: #a3c644;
      fill-rule: evenodd;
      }
    </style>
  </defs>
  <path id="Heroes.svg" class="cls-1" d="M1060.94,91.693a16.93,16.93,0,0,1-21.53,16.17L1033.49,117l8.02-23.82a0.387,0.387,0,0,1,.38-0.271h3.24a0.271,0.271,0,0,1,.24.349v0l-2.55,7.62h0a6.272,6.272,0,0,0,5.94-4.287l6.1-18.139A16.993,16.993,0,0,1,1060.94,91.693Zm-21.67-5.282-6.1,18.134a16.977,16.977,0,0,1,15.44-29.406L1054.53,66l-7.66,22.826a0.418,0.418,0,0,1-.38.27h-3.23a0.286,0.286,0,0,1-.27-0.372l2.22-6.6h0A6.271,6.271,0,0,0,1039.27,86.411Z" transform="translate(-1027.09 -66)"/>
</svg>
