<svg xmlns="http://www.w3.org/2000/svg" width="33.85" height="51" viewBox="0 0 33.85 51">
  <defs>
   <style type="text/css">
    .st0{fill-rule:evenodd;clip-rule:evenodd;fill:#ED7B52;}
    .st1{fill-rule:evenodd;clip-rule:evenodd;fill:#F69368;}
  </style>
  </defs>
<g id="Heroes_Colors.svg">
	<path class="st0" d="M33.9,25.7c-0.1,9.4-7.9,16.9-17.2,16.8c-1.5,0-3-0.2-4.3-0.6l-5.9,9.1l8-23.8c0.1-0.2,0.2-0.3,0.4-0.3H18
		c0,0,0,0,0,0c0.2,0,0.3,0.2,0.2,0.3c0,0,0,0,0,0l-2.6,7.6h0c2.7,0,5.1-1.7,6-4.3l6.1-18.1C31.6,15.6,33.9,20.4,33.9,25.7z"/>
	<path class="st1" d="M12.2,20.4L6,38.5C2.4,35.4,0,30.8,0,25.7C-0.1,16.3,7.5,8.6,16.8,8.5c1.6,0,3.2,0.2,4.7,0.6l5.9-9.1
		l-7.7,22.8c-0.1,0.2-0.2,0.3-0.4,0.3h-3.2l0,0c-0.2,0-0.3-0.2-0.3-0.4l2.2-6.6h0C15.4,16.1,13,17.9,12.2,20.4z"/>
</g>
</svg>
