<svg xmlns="http://www.w3.org/2000/svg" width="39" height="29" viewBox="0 0 39 29">
  <defs>
    <style>
      .cls-1 {
      fill: #ffdc19;
      fill-rule: evenodd;
      }
    </style>
  </defs>
  <path id="Learn.svg" class="cls-1" d="M148.368,915a1.34,1.34,0,0,0-.178.017l-11.271,2.4V937.56l0.424-.093,11.2-2.389a0.849,0.849,0,0,0,.67-0.836V915.853A0.853,0.853,0,0,0,148.368,915Zm-2.485,17.682-6.335,1.347a1.191,1.191,0,0,1-.178.017,0.826,0.826,0,0,1-.823-0.827,0.839,0.839,0,0,1,.653-0.819l6.344-1.348a1.357,1.357,0,0,1,.17-0.017,0.826,0.826,0,0,1,.822.828A0.839,0.839,0,0,1,145.883,932.682Zm0-4.282-6.335,1.356a1.227,1.227,0,0,1-.161.017,0.837,0.837,0,0,1-.84-0.836,0.822,0.822,0,0,1,.653-0.81l6.344-1.356a1.192,1.192,0,0,1,.17-0.017A0.833,0.833,0,0,1,145.883,928.4Zm0-4.282-6.335,1.356a1.192,1.192,0,0,1-.17.017,0.835,0.835,0,0,1-.831-0.836,0.823,0.823,0,0,1,.653-0.81l6.344-1.356a0.978,0.978,0,0,1,.161-0.017,0.834,0.834,0,0,1,.831.836A0.822,0.822,0,0,1,145.883,924.118Zm0-4.273-6.335,1.347a1.191,1.191,0,0,1-.178.017,0.826,0.826,0,0,1-.823-0.827,0.84,0.84,0,0,1,.653-0.819l6.344-1.347a1.2,1.2,0,0,1,.17-0.018,0.826,0.826,0,0,1,.822.828A0.839,0.839,0,0,1,145.883,919.845ZM124.8,915.017a1.34,1.34,0,0,0-.178-0.017,0.853,0.853,0,0,0-.848.853v18.389a0.849,0.849,0,0,0,.67.836l11.2,2.389,0.424,0.093V917.422Zm8.82,19.029a1.191,1.191,0,0,1-.178-0.017l-6.335-1.347a0.839,0.839,0,0,1-.653-0.819,0.826,0.826,0,0,1,.822-0.828,1.324,1.324,0,0,1,.178.017l6.336,1.348a0.839,0.839,0,0,1,.653.819A0.826,0.826,0,0,1,133.62,934.046Zm-0.017-4.273a1.227,1.227,0,0,1-.161-0.017l-6.335-1.356a0.833,0.833,0,0,1,.178-1.646,1.179,1.179,0,0,1,.169.017l6.336,1.356a0.822,0.822,0,0,1,.653.81A0.837,0.837,0,0,1,133.6,929.773Zm0.008-4.282a1.193,1.193,0,0,1-.169-0.017l-6.335-1.356a0.822,0.822,0,0,1-.653-0.81,0.836,0.836,0,0,1,.839-0.836,1.077,1.077,0,0,1,.161.017l6.336,1.356a0.823,0.823,0,0,1,.653.81A0.835,0.835,0,0,1,133.611,925.491Zm0.009-4.282a1.191,1.191,0,0,1-.178-0.017l-6.335-1.347a0.839,0.839,0,0,1-.653-0.819,0.826,0.826,0,0,1,.822-0.828,1.18,1.18,0,0,1,.178.018l6.336,1.347a0.84,0.84,0,0,1,.653.819A0.826,0.826,0,0,1,133.62,921.209Zm-12.39-1.944a1.706,1.706,0,0,0-1.7,1.706v17.911h1.7V920.971h1.7v-1.706h-1.7Zm30.53,0h-1.7v1.706h1.7v17.911h1.7V920.971A1.705,1.705,0,0,0,151.76,919.265ZM156,940.588v2.559a0.851,0.851,0,0,1-.848.853H117.837a0.851,0.851,0,0,1-.848-0.853v-2.559a0.851,0.851,0,0,1,.848-0.853h14.418v0.853a0.85,0.85,0,0,0,.848.853h6.784a0.85,0.85,0,0,0,.848-0.853v-0.853h14.418A0.851,0.851,0,0,1,156,940.588Z" transform="translate(-117 -915)"/>
</svg>
