<svg xmlns="http://www.w3.org/2000/svg" width="28" height="22" viewBox="0 0 28 22">
  <defs>
    <style>
      .cls-1 {
      fill: #464547;
      fill-rule: evenodd;
      }
    </style>
  </defs>
  <path id="Satisfaction.svg" class="cls-1" d="M844.006,440c4.874,0,9,2.75,9,6s-4.124,6-9,6a13.422,13.422,0,0,1-2.39-.219l-0.828-.156-0.688.484c-0.312.219-.64,0.422-0.968,0.61l0.546-1.312-1.515-.875c-2-1.156-3.156-2.812-3.156-4.53C835.007,442.746,839.132,440,844.006,440Zm0-2c-6.077,0-11,3.577-11,8,0,2.53,1.625,4.8,4.156,6.264a8.09,8.09,0,0,1-1.828,2.593,0.8,0.8,0,0,0-.312.687h0a0.529,0.529,0,0,0,.5.453h0.047a11.192,11.192,0,0,0,1.343-.25,13.117,13.117,0,0,0,4.343-2,15.674,15.674,0,0,0,2.75.25c6.077,0,11-3.578,11-8S850.083,438,844.006,438Zm12.842,18.261c2.53-1.469,4.155-3.718,4.155-6.264,0-2.609-1.718-4.921-4.358-6.374A8.112,8.112,0,0,1,857,446a9.016,9.016,0,0,1-4.046,7.279,15.338,15.338,0,0,1-8.952,2.718c-0.453,0-.922-0.031-1.375-0.062a13.546,13.546,0,0,0,7.374,2.062,15.654,15.654,0,0,0,2.749-.25,13.132,13.132,0,0,0,4.344,2,11.317,11.317,0,0,0,1.343.25,0.534,0.534,0,0,0,.547-0.453h0a0.8,0.8,0,0,0-.313-0.687A8.089,8.089,0,0,1,856.848,456.258Z" transform="translate(-833 -438)"/>
</svg>
