<svg xmlns="http://www.w3.org/2000/svg" width="30" height="32" viewBox="0 0 30 32">
  <defs>
    <style>
      .cls-1 {
      fill: #464547;
      fill-rule: evenodd;
      }
    </style>
  </defs>
  <path id="Staffing_Desk.svg" data-name="Staffing Desk.svg" class="cls-1" d="M131,1156a13,13,0,1,1-13,13A13,13,0,0,1,131,1156Zm0,2.5a10.5,10.5,0,1,1-10.5,10.5A10.5,10.5,0,0,1,131,1158.5Zm0,4.5a6,6,0,1,1-6,6A6,6,0,0,1,131,1163Zm-1-10h2v4h-2v-4Zm0,28h2v4h-2v-4Zm-14-13h4v2h-4v-2Zm26,0h4v2h-4v-2Z" transform="translate(-116 -1153)"/>
</svg>
