<svg xmlns="http://www.w3.org/2000/svg" width="27.906" height="29" viewBox="0 0 27.906 29">
  <defs>
    <style>
      .cls-1 {
      fill: #7f993a;
      fill-rule: evenodd;
      }
    </style>
  </defs>
  <path id="Support.svg" class="cls-1" d="M131,1277l-1-3h0l-1,3v23h0a1.408,1.408,0,0,1-1.6,1c-0.845-.01-1.255-0.03-1.4-1v-2h-2c-0.006.06,0.007,1.85,0,2,0,1.91,1.075,2.97,3.186,3h0.248c1.992,0,3.566-1.06,3.566-3v-23Zm-14.9,12.41a3.743,3.743,0,0,1,3.159-1.61,3.9,3.9,0,0,1,3.592,2.55,3.719,3.719,0,0,1,3.577-2.43,3.9,3.9,0,0,1,3.583,2.56,3.718,3.718,0,0,1,3.577-2.43,3.892,3.892,0,0,1,3.591,2.55,3.725,3.725,0,0,1,3.578-2.43,3.9,3.9,0,0,1,3.244,1.85,14.421,14.421,0,0,0-13.993-11.95,14,14,0,0,0-7.461,1.96,13.6,13.6,0,0,0-6.447,9.38h0Zm-0.1-.15" transform="translate(-116.094 -1274)"/>
</svg>
