<svg xmlns="http://www.w3.org/2000/svg" width="34" height="33.91" viewBox="0 0 34 33.91">
  <defs>
    <style>
      .cls-1 {
      fill: #1a9cb0;
      fill-rule: evenodd;
      }
    </style>
  </defs>
  <path id="Telescope.svg" class="cls-1" d="M131.092,1056.49a2.19,2.19,0,0,0,.506,1.36l-3.483,7.37a16.219,16.219,0,0,1-8.292-5.5l5.44-3.14,0.514,0.84a0.857,0.857,0,0,0,1.194.34l4.935-2.79a2.042,2.042,0,0,0-.764,1.52m1.02,9.41v-5.08l-2.3,4.83c0.764,0.08,1.526.16,2.3,0.25m1.7-.08a9.99,9.99,0,0,0,2.3-.26l-2.3-4.74v4.96M116,1048.95a17,17,0,1,1,21.76,16.27l-3.483-7.29a2.008,2.008,0,0,0,.6-1.36,1.89,1.89,0,0,0-1.866-1.87,2.354,2.354,0,0,0-.763.18l5.523-3.22,0.68,1.1a0.866,0.866,0,0,0,1.194.34l1.526-.85a0.857,0.857,0,0,0,.34-1.19l-4.934-8.47a0.846,0.846,0,0,0-1.186-.34l-1.534.85a0.743,0.743,0,0,0-.339,1.1l0.082,0.08,1.7,2.97a0.858,0.858,0,0,1-.34,1.19,0.786,0.786,0,0,1-.423.08,0.88,0.88,0,0,1-.763-0.42l-1.02-1.87-9.346,5.35a0.86,0.86,0,0,0-.339,1.19l0.6,1.01-5.614,3.22a17.146,17.146,0,0,1-2.04-8.05m7.9-10.63a12.779,12.779,0,0,1,16.743,2.79,0.891,0.891,0,0,0,.763.42,0.96,0.96,0,0,0,1.02-.93,0.994,0.994,0,0,0-.257-0.68l-0.083-.08a12.633,12.633,0,0,0-18.36-1.83l-0.084.08v0.09a0.354,0.354,0,0,0,.084.25,0.3,0.3,0,0,0,.174-0.08m20.823,8.78c0.34-.18-0.175-1.78,0-2.04s1.783-.84,1.7-1.18-1.791-.51-1.957-0.68c-0.257-.16-0.257-1.95-0.6-2.03s-1.02,1.52-1.277,1.69-1.949-.42-2.123-0.08c-0.257.42,1.185,1.36,1.185,1.69s-1.019,1.7-.68,1.96c0.341,0.34,1.618-.68,2.041-0.6,0.5,0,1.359,1.36,1.7,1.27m-27.01,10.38a0.833,0.833,0,0,0-1.186-.26,0.791,0.791,0,0,0-.256,1.1l1.36,2.29a0.875,0.875,0,0,0,.762.43,0.6,0.6,0,0,0,.423-0.09,0.835,0.835,0,0,0,.257-1.19l-1.36-2.29" transform="translate(-116 -1032)"/>
</svg>
