<svg xmlns="http://www.w3.org/2000/svg" width="33" height="23" viewBox="0 0 33 23">
  <defs>
    <style>
      .cls-1 {
      fill: #39c2d7;
      fill-rule: evenodd;
      }
    </style>
  </defs>
  <path id="Training.svg" class="cls-1" d="M833.13,569.531C833.081,569.043,849.217,559,849.864,559S866,569.141,866,569.531s-6.574,4.68-6.574,4.68-0.72-5.837-9.562-5.85c-8.541-.014-9.562,5.85-9.562,5.85l-6.574-4.1s1.444,11.506,1.2,11.7a2.291,2.291,0,0,1-1.793,0C832.832,581.524,833.18,570.018,833.13,569.531Zm7.77,7.02s0.188-3.71,1.792-5.265c1.283-1.243,4.582-1.755,7.172-1.755s5.536,0.4,7.172,1.755c1.309,1.084,1.792,5.265,1.792,5.265a5.092,5.092,0,0,0-3.585-1.17c-2.891.077-5.379,3.51-5.379,3.51s-2.839-3.412-5.379-3.51A4.512,4.512,0,0,0,840.9,576.551Z" transform="translate(-833 -559)"/>
</svg>
