<svg xmlns="http://www.w3.org/2000/svg" width="32" height="34" viewBox="0 0 32 34">
  <defs>
    <style>
      .cls-1 {
      fill: #1a9cb0;
      fill-rule: evenodd;
      }
    </style>
  </defs>
  <path id="Unified_Assessment.svg" data-name="Unified Assessment.svg" class="cls-1" d="M146.271,681.959l-0.842-.821H137.3l-4.488-7.488h-0.841l-4.487,7.488h-8.133l-0.841.821L122.744,689l-4.237,7.05,0.841,0.83h8.133l4.487,7.456h0.841l4.488-7.456h8.132l0.842-.832-4.238-7.046Zm-13.882,15.417a8.377,8.377,0,1,1,8.5-8.376A8.438,8.438,0,0,1,132.389,697.376Zm-13.462-2.986a2.074,2.074,0,1,0,2.1,2.073A2.088,2.088,0,0,0,118.927,694.39Zm26.923-10.78a2.074,2.074,0,1,0-2.1-2.073A2.088,2.088,0,0,0,145.85,683.61Zm-25.661-2.073a2.1,2.1,0,1,0-2.1,2.073A2.089,2.089,0,0,0,120.189,681.537Zm12.2,20.317a2.073,2.073,0,1,0,2.1,2.073A2.089,2.089,0,0,0,132.389,701.854Zm13.461-7.464a2.074,2.074,0,1,0,2.1,2.073A2.088,2.088,0,0,0,145.85,694.39ZM132.389,672a2.073,2.073,0,1,0,2.1,2.073A2.089,2.089,0,0,0,132.389,672Zm0,10.089A6.912,6.912,0,1,0,139.4,689,6.962,6.962,0,0,0,132.389,682.089Zm0,11.071A4.161,4.161,0,1,1,136.61,689,4.191,4.191,0,0,1,132.389,693.16Zm-0.007-8.983,0.93,2.823h3.012l-2.437,2.125,0.931,3.013-2.436-1.65-2.437,1.792,0.931-3.179L128.44,687h3.011Zm0,0,0.93,2.823h3.012l-2.437,2.125,0.931,3.013-2.436-1.65-2.437,1.792,0.931-3.179L128.44,687h3.011Zm0,0,0.93,2.823h3.012l-2.437,2.125,0.931,3.013-2.436-1.65-2.437,1.792,0.931-3.179L128.44,687h3.011Zm0,0,0.93,2.823h3.012l-2.437,2.125,0.931,3.013-2.436-1.65-2.437,1.792,0.931-3.179L128.44,687h3.011Zm0,0,0.93,2.823h3.012l-2.437,2.125,0.931,3.013-2.436-1.65-2.437,1.792,0.931-3.179L128.44,687h3.011Zm-1.506,4.924" transform="translate(-115.969 -672)"/>
</svg>
