<svg xmlns="http://www.w3.org/2000/svg" width="39" height="34" viewBox="0 0 39 34">
  <defs>
    <style>
      .cls-1 {
      fill: #39c2d7;
      fill-rule: evenodd;
      }
    </style>
  </defs>
  <path id="University.svg" class="cls-1" d="M858.061,214.826a9.079,9.079,0,0,0,1.93-2.674v11.174h-1.93v-8.5Zm9.649-22.062v18.051l-1.93-1.242v-14.9h-5.789v9.169a10.514,10.514,0,0,0-1.93-2.674v-8.405h9.649Zm-6.754,5.73h3.859v1.91h-3.859v-1.91Zm-14.473-5.73v6.972a7.009,7.009,0,0,1,1.93-.86v-4.2H854.2v4.3a6.966,6.966,0,0,1,1.93.86v-7.068h-9.649Zm7.719,24.354v4.3h-5.789v-4.3a6.98,6.98,0,0,1-1.93-.86v7.068h9.649v-6.972A11.512,11.512,0,0,1,854.2,217.118Zm-9.648-15.854,0.772-8.4-9.649-.86-2.7,30.466,9.648,0.86,0.868-9.742a10.015,10.015,0,0,1-1.64-3.724l-0.965,11.46-5.789-.477,2.316-26.742,5.789,0.478L842.335,204.7A7.338,7.338,0,0,1,844.554,201.264Zm-8.3,15.854,3.859,0.286,0.193-1.814-3.859-.382Zm1.544-17.1,3.859,0.287,0.193-1.91-3.859-.287Zm34.155,15.854-4.245-2.769-1.93-1.242-3.859-2.483V221.32l3.57-1.91,0.289,0.478,1.737,3.151L869.061,226l2.894-1.528-3.57-6.59ZM851.308,200.4a7.641,7.641,0,1,0,7.718,7.641A7.7,7.7,0,0,0,851.308,200.4Zm-2.316,11.939v-8.6l5.789,4.3Z" transform="translate(-832.969 -192)"/>
</svg>
