<svg xmlns="http://www.w3.org/2000/svg" width="36" height="29" viewBox="0 0 36 29">
  <defs>
    <style>
      .cls-1 {
      fill: #1a9cb0;
      fill-rule: evenodd;
      }
    </style>
  </defs>
  <path id="UPSA.svg" class="cls-1" d="M132.555,331.149H131.68a0.822,0.822,0,0,1-.823-0.82,0.617,0.617,0,0,1,.189-0.446,5.935,5.935,0,0,0,1.247-1.874,0.35,0.35,0,0,0,.206.081c0.492,0,1.07-1.083,1.07-1.821s-0.068-1.337-.56-1.337a0.807,0.807,0,0,0-.183.026c-0.034-2-.542-4.5-3.607-4.5-3.2,0-3.571,2.492-3.607,4.491a0.807,0.807,0,0,0-.132-0.019c-0.493,0-.56.6-0.56,1.337s0.577,1.821,1.069,1.821a0.331,0.331,0,0,0,.17-0.048,5.9,5.9,0,0,0,1.233,1.841,0.625,0.625,0,0,1,.188.446,0.821,0.821,0,0,1-.822.82h-0.877a3.385,3.385,0,0,0-3.39,3.38v0.937A2.066,2.066,0,0,0,124.027,337h10.944c0.572,0,.973-0.945.973-1.535v-0.937A3.382,3.382,0,0,0,132.555,331.149ZM145.226,322H136c0.266,0.637.922,1.028,1,2,0.2,0.131-.12-0.263,0-0.007h8.226a0.8,0.8,0,0,0,.771-0.834v-0.323A0.8,0.8,0,0,0,145.226,322Zm-0.045,5.011h-8.505c-0.676,1.048-.768,1.152-0.676.987l-0.985,1H145.18a0.824,0.824,0,0,0,.816-0.833v-0.324A0.823,0.823,0,0,0,145.181,327.013Zm0.051,4.978H138c0.411,0.717,0,.1,0,1.009l0.656,1.016h6.576a0.806,0.806,0,0,0,.765-0.843v-0.339A0.807,0.807,0,0,0,145.232,331.991Zm1.881-18H120.876A4.864,4.864,0,0,0,116,318.85v19.289A4.865,4.865,0,0,0,120.876,343h26.237a4.864,4.864,0,0,0,4.872-4.858V318.85A4.863,4.863,0,0,0,147.113,313.993ZM150,338.467a2.533,2.533,0,0,1-2.541,2.518H120.532a2.533,2.533,0,0,1-2.541-2.518V318.523a2.532,2.532,0,0,1,2.541-2.518h26.925A2.532,2.532,0,0,1,150,318.523v19.944Z" transform="translate(-116 -314)"/>
</svg>
