<svg xmlns="http://www.w3.org/2000/svg" width="34" height="34" viewBox="0 0 34 34">
  <defs>
    <style>
      .cls-1 {
      fill: #1a9cb0;
      fill-rule: evenodd;
      }
    </style>
  </defs>
  <path id="VTS.svg" class="cls-1" d="M133,440.762A8.238,8.238,0,1,0,141.237,449,8.262,8.262,0,0,0,133,440.762Zm0,13.48A5.243,5.243,0,1,1,138.242,449,5.258,5.258,0,0,1,133,454.242Zm0-16.214a1.5,1.5,0,0,0,1.5-1.5V433.5a1.5,1.5,0,1,0-3,0v3.032A1.478,1.478,0,0,0,133,438.028Zm15.5,9.474h-3.034a1.5,1.5,0,0,0,0,3H148.5A1.5,1.5,0,0,0,148.5,447.5ZM133,459.971a1.5,1.5,0,0,0-1.5,1.5V464.5a1.5,1.5,0,1,0,3,0v-3.033A1.478,1.478,0,0,0,133,459.971ZM122.028,449a1.5,1.5,0,0,0-1.5-1.5H117.5a1.5,1.5,0,1,0,0,3h3.033A1.479,1.479,0,0,0,122.028,449Zm19.771-7.3a1.475,1.475,0,0,0,1.048-.45l2.172-2.171a1.509,1.509,0,0,0-2.134-2.135l-2.172,2.172a1.492,1.492,0,0,0,0,2.134A1.63,1.63,0,0,0,141.8,441.7Zm1.048,15.052a1.509,1.509,0,0,0-2.134,2.135l2.172,2.172a1.5,1.5,0,0,0,2.1-2.135Zm-19.7,0-2.172,2.172a1.5,1.5,0,1,0,2.1,2.135l2.172-2.172a1.493,1.493,0,0,0,0-2.135A1.449,1.449,0,0,0,123.152,456.75Zm0-15.5a1.415,1.415,0,0,0,1.048.45,1.476,1.476,0,0,0,1.048-.45,1.492,1.492,0,0,0,0-2.134l-2.172-2.172a1.509,1.509,0,1,0-2.134,2.135Z" transform="translate(-116 -432)"/>
</svg>
